<?xml version="1.0" encoding="utf-8"?>
<!-- Generator: Adobe Illustrator 28.3.0, SVG Export Plug-In . SVG Version: 6.00 Build 0)  -->
<svg version="1.1" id="Layer_1" xmlns="http://www.w3.org/2000/svg" xmlns:xlink="http://www.w3.org/1999/xlink" x="0px" y="0px"
	 viewBox="0 0 32 32" style="enable-background:new 0 0 32 32;" xml:space="preserve">
<style type="text/css">
	.st0{fill:#231F20;}
</style>
<path class="st0" d="M2.91,2.18h7.63c0.45,0,0.82,0.37,0.82,0.82v7.57c0,0.45,0.37,0.82,0.82,0.82h7.63c0.45,0,0.82-0.37,0.82-0.82
	V3c0-0.45,0.37-0.82,0.82-0.82h7.63c0.45,0,0.82,0.37,0.82,0.82l0,16.79c0,0.45-0.37,0.82-0.82,0.82l-7.63,0
	c-0.45,0-0.82,0.37-0.82,0.82V29c0,0.45-0.37,0.82-0.82,0.82h-7.63c-0.45,0-0.82-0.37-0.82-0.82l0-7.57c0-0.45-0.37-0.82-0.82-0.82
	l-7.63,0c-0.45,0-0.82-0.37-0.82-0.82L2.09,3C2.09,2.54,2.45,2.18,2.91,2.18z"/>
</svg>
